<?xml version="1.0" standalone="no"?>
<!DOCTYPE svg PUBLIC "-//W3C//DTD SVG 20010904//EN"
 "http://www.w3.org/TR/2001/REC-SVG-20010904/DTD/svg10.dtd">
<svg version="1.0" xmlns="http://www.w3.org/2000/svg"
 width="4416.000000pt" height="4200.000000pt" viewBox="0 0 4416.000000 4200.000000"
 preserveAspectRatio="xMidYMid meet">

<g transform="translate(0.000000,4200.000000) scale(0.100000,-0.100000)"
fill="#000000" stroke="none">
<path d="M0 21000 l0 -21000 22080 0 22080 0 0 21000 0 21000 -22080 0 -22080
0 0 -21000z m16397 10523 c26 -38 120 -165 208 -283 89 -118 210 -282 270
-364 61 -82 196 -264 300 -405 105 -141 239 -321 297 -401 119 -161 157 -212
481 -650 297 -401 337 -454 585 -790 116 -157 231 -312 255 -345 25 -33 153
-206 286 -385 132 -179 267 -361 299 -405 33 -44 168 -226 300 -405 133 -179
268 -361 300 -405 33 -44 160 -216 283 -382 123 -165 260 -350 304 -410 44
-59 179 -243 302 -408 243 -328 272 -367 581 -785 116 -157 231 -312 255 -345
342 -461 560 -750 568 -750 8 0 200 253 552 728 56 76 284 382 506 680 222
298 457 614 523 702 65 88 300 403 521 700 222 297 459 616 527 708 69 93 307
412 529 710 222 298 451 605 508 682 57 77 293 394 525 705 231 311 461 619
510 685 255 342 888 1193 1007 1352 75 100 154 207 175 238 22 30 48 64 58 75
19 20 30 20 2107 20 1148 0 2090 -3 2093 -6 3 -3 -94 -130 -216 -283 -121
-153 -285 -358 -363 -457 -78 -98 -315 -395 -525 -660 -211 -264 -457 -574
-548 -688 -91 -115 -355 -448 -588 -740 -233 -292 -486 -610 -562 -706 -77
-96 -313 -393 -525 -660 -213 -267 -449 -564 -525 -660 -77 -96 -312 -391
-522 -656 -211 -264 -466 -585 -568 -713 -102 -128 -366 -461 -588 -740 -222
-278 -466 -585 -542 -681 -77 -96 -312 -391 -522 -656 -211 -264 -457 -574
-548 -688 -230 -291 -1000 -1257 -1064 -1337 -29 -36 -61 -77 -71 -92 l-17
-26 72 -90 c39 -50 111 -141 158 -204 48 -62 146 -189 217 -282 169 -219 297
-384 359 -466 28 -36 105 -135 170 -220 66 -85 172 -221 235 -304 63 -82 147
-190 186 -240 39 -49 112 -144 163 -210 50 -66 152 -199 226 -295 75 -96 184
-238 243 -315 58 -77 139 -180 178 -230 39 -49 112 -144 163 -210 50 -66 142
-186 204 -266 62 -80 165 -213 228 -295 63 -82 131 -169 150 -195 19 -26 87
-114 151 -195 63 -82 169 -219 234 -304 65 -85 150 -194 188 -242 38 -48 108
-138 155 -201 48 -62 146 -189 217 -282 169 -219 297 -384 359 -466 28 -36
104 -134 169 -218 64 -83 170 -220 234 -303 64 -84 149 -193 188 -243 39 -49
112 -144 163 -210 50 -66 152 -199 226 -295 75 -96 184 -238 243 -315 58 -77
139 -180 178 -230 39 -49 112 -144 163 -210 50 -66 142 -186 204 -266 62 -80
165 -213 228 -295 63 -82 131 -169 150 -195 19 -26 87 -114 151 -195 63 -82
169 -219 234 -304 65 -85 150 -194 188 -242 38 -48 108 -138 155 -201 77 -100
187 -243 452 -586 41 -53 97 -126 125 -162 27 -36 104 -135 170 -220 65 -85
184 -238 262 -341 79 -103 148 -190 154 -193 5 -4 7 -11 4 -16 -7 -11 -4504
-12 -4521 -1 -6 4 -42 50 -80 103 -64 89 -176 241 -444 604 -61 83 -150 204
-197 270 -48 66 -132 181 -188 255 -55 74 -133 180 -172 235 -40 55 -135 186
-212 290 -154 210 -151 205 -338 460 -72 99 -147 200 -165 225 -51 69 -293
400 -330 450 -18 25 -96 131 -173 235 -77 105 -148 201 -157 215 -9 14 -87
120 -172 235 -85 116 -163 221 -173 235 -10 14 -84 115 -165 225 -81 110 -160
218 -176 240 -16 22 -90 122 -163 221 -213 288 -386 525 -494 673 -111 154
-249 340 -433 590 -68 91 -156 211 -196 267 -66 93 -183 252 -476 649 -61 83
-148 202 -194 265 -45 63 -151 207 -234 320 -83 113 -166 225 -184 250 -18 25
-92 126 -165 225 -73 99 -163 222 -200 273 -37 50 -75 92 -83 92 -9 0 -32 -21
-52 -47 -57 -76 -381 -514 -518 -699 -68 -93 -210 -284 -315 -425 -104 -141
-239 -323 -300 -405 -60 -82 -195 -264 -300 -405 -212 -286 -598 -807 -718
-969 -43 -58 -200 -269 -349 -470 -149 -201 -290 -392 -315 -425 -24 -33 -159
-215 -300 -405 -141 -190 -282 -381 -315 -425 -32 -44 -167 -226 -300 -405
-132 -179 -267 -361 -300 -405 -32 -44 -165 -224 -296 -400 -131 -176 -273
-369 -317 -428 -44 -60 -181 -245 -304 -410 -276 -373 -333 -449 -524 -708
-84 -113 -217 -293 -297 -400 -80 -106 -156 -210 -169 -229 -13 -19 -29 -38
-35 -42 -18 -12 -4156 -10 -4156 2 0 5 39 60 88 121 48 61 96 123 107 138 11
14 60 78 110 141 50 63 129 164 176 224 46 60 127 164 179 231 52 68 181 232
285 365 105 133 199 254 210 269 11 15 58 75 105 135 47 59 94 120 105 135 11
14 60 78 110 141 84 106 141 179 330 424 65 83 269 344 434 555 36 46 75 95
86 110 11 14 60 78 110 141 86 109 128 162 355 456 52 67 181 231 285 364 105
133 199 254 210 269 11 14 60 78 110 141 50 63 129 164 176 224 46 60 127 164
179 231 52 68 181 232 285 365 105 133 199 254 210 269 11 15 58 75 105 135
47 59 94 120 105 135 11 14 60 78 110 141 84 106 141 179 330 424 65 83 269
344 434 555 36 46 75 95 86 110 11 14 60 78 110 141 86 109 128 162 355 456
52 67 181 231 285 364 105 133 199 254 210 269 11 14 60 78 110 141 50 63 129
164 176 224 46 60 127 164 179 231 52 68 181 232 285 365 105 133 199 254 210
269 11 15 58 75 105 135 47 59 94 120 105 135 11 14 60 78 110 141 50 63 129
164 176 224 46 60 120 155 164 212 44 56 115 148 158 204 44 55 77 106 74 113
-5 12 -128 174 -442 583 -88 114 -169 220 -180 235 -11 15 -63 83 -116 151
-53 67 -130 168 -172 223 -85 112 -282 369 -522 681 -88 114 -169 220 -180
235 -11 15 -63 83 -116 151 -53 67 -130 168 -172 223 -75 99 -212 277 -519
676 -86 112 -228 299 -317 414 -88 116 -196 255 -239 310 -43 55 -126 163
-185 240 -110 145 -276 361 -552 721 -88 114 -169 220 -180 235 -11 15 -63 83
-116 151 -53 67 -130 168 -172 223 -42 55 -140 184 -219 286 -238 309 -462
602 -483 630 -52 69 -308 402 -376 488 -41 53 -123 159 -182 236 -102 135
-212 279 -552 721 -88 114 -169 220 -180 235 -11 15 -63 83 -116 151 -53 67
-130 168 -172 223 -85 112 -282 369 -522 681 -88 114 -169 220 -180 235 -11
15 -63 83 -116 151 -53 67 -130 168 -172 223 -42 55 -141 184 -219 286 -79
103 -216 282 -305 398 -90 117 -163 217 -163 222 0 5 864 9 2254 9 l2255 0 48
-67z"/>
</g>
</svg>
